<svg width="52" height="51" viewBox="0 0 52 51" fill="none" xmlns="http://www.w3.org/2000/svg">
<path d="M22.0179 9.494C23.1726 9.49503 23.8932 10.7457 23.3149 11.7452L13.7739 28.2366C13.1956 29.2361 11.7522 29.2348 11.1758 28.2343L1.66432 11.7257C1.08787 10.7252 1.81068 9.47586 2.96538 9.4769L22.0179 9.494Z" fill="#710F0F" stroke="black"/>
<path d="M14.4527 31.8578C13.7128 30.5076 14.712 28.8628 16.2513 28.8972L35.2991 29.3223C36.8383 29.3567 37.7631 31.0444 36.9637 32.3603L27.0716 48.6436C26.2723 49.9594 24.3482 49.9164 23.6084 48.5663L14.4527 31.8578Z" fill="#0F7119"/>
<path d="M27.4527 11.8578C26.7128 10.5076 27.712 8.86282 29.2513 8.89717L48.2991 9.32235C49.8383 9.35671 50.7631 11.0444 49.9637 12.3603L40.0716 28.6436C39.2723 29.9594 37.3482 29.9164 36.6084 28.5663L27.4527 11.8578Z" fill="#0F1E71"/>
</svg>
